<?xml version="1.0" encoding="UTF-8"?>
<!DOCTYPE svg PUBLIC "-//W3C//DTD SVG 1.1//EN" "http://www.w3.org/Graphics/SVG/1.1/DTD/svg11.dtd">
<svg xmlns="http://www.w3.org/2000/svg" version="1.1" width="512px" height="512px" style="shape-rendering:geometricPrecision; text-rendering:geometricPrecision; image-rendering:optimizeQuality; fill-rule:evenodd; clip-rule:evenodd" xmlns:xlink="http://www.w3.org/1999/xlink">
<g><path style="opacity:1" fill="#f9f9f9" d="M -0.5,-0.5 C 170.167,-0.5 340.833,-0.5 511.5,-0.5C 511.5,170.167 511.5,340.833 511.5,511.5C 340.833,511.5 170.167,511.5 -0.5,511.5C -0.5,340.833 -0.5,170.167 -0.5,-0.5 Z"/></g>
<g><path style="opacity:1" fill="#3c445b" d="M 218.5,81.5 C 206.794,80.0509 195.127,80.2175 183.5,82C 178.357,83.7414 173.357,85.7414 168.5,88C 162.992,93.0065 157.326,97.8399 151.5,102.5C 151.167,102.5 150.833,102.5 150.5,102.5C 152.167,100.5 153.833,98.5 155.5,96.5C 173.713,80.0306 194.713,75.0306 218.5,81.5 Z"/></g>
<g><path style="opacity:1" fill="#040b1e" d="M 218.5,81.5 C 226.766,83.1395 234.433,86.1395 241.5,90.5C 238.495,90.747 235.995,89.747 234,87.5C 232.984,88.6341 232.317,88.3008 232,86.5C 229.333,87.1667 226.667,87.8333 224,88.5C 223.833,88.1667 223.667,87.8333 223.5,87.5C 229.979,86.8244 230.146,85.4911 224,83.5C 223.439,84.0219 222.772,84.3552 222,84.5C 215.241,83.0517 208.408,82.0517 201.5,81.5C 199.117,82.276 197.117,83.6093 195.5,85.5C 185.691,87.9911 176.358,91.6578 167.5,96.5C 161.36,103.061 155.027,109.395 148.5,115.5C 148.446,114.47 148.112,113.303 147.5,112C 149.902,109.297 151.235,106.13 151.5,102.5C 157.326,97.8399 162.992,93.0065 168.5,88C 173.357,85.7414 178.357,83.7414 183.5,82C 195.127,80.2175 206.794,80.0509 218.5,81.5 Z"/></g>
<g><path style="opacity:1" fill="#011332" d="M 241.5,90.5 C 249.341,94.9188 257.008,99.5854 264.5,104.5C 266.897,106.53 269.563,108.197 272.5,109.5C 313.876,135.596 355.543,161.43 397.5,187C 402.888,192.265 408.388,197.432 414,202.5C 415.421,204.405 416.588,206.405 417.5,208.5C 416.883,208.389 416.383,208.056 416,207.5C 409.533,208.601 403.2,209.267 397,209.5C 398.17,216.485 401.003,222.818 405.5,228.5C 402.154,230.789 398.82,232.123 395.5,232.5C 398.662,238.362 400.162,244.362 400,250.5C 399.583,251.756 398.75,252.423 397.5,252.5C 397.656,248.236 396.989,244.236 395.5,240.5C 393.227,232.86 389.56,225.86 384.5,219.5C 382.842,215.328 380.175,211.828 376.5,209C 363.501,199.851 350.167,191.351 336.5,183.5C 310.375,165.931 284.041,148.598 257.5,131.5C 255.999,130.248 254.332,129.248 252.5,128.5C 243.524,121.511 233.524,116.344 222.5,113C 212.569,111.697 202.903,112.697 193.5,116C 192.058,116.377 191.058,117.21 190.5,118.5C 185.937,120.395 182.27,123.395 179.5,127.5C 171.389,137.242 168.389,148.409 170.5,161C 168.551,168.894 167.884,177.061 168.5,185.5C 168.705,193.867 168.371,202.2 167.5,210.5C 164.66,210.82 161.826,210.82 159,210.5C 157.78,211.388 156.447,212.055 155,212.5C 152.474,211.936 149.974,211.269 147.5,210.5C 145.289,211.685 142.955,212.685 140.5,213.5C 139.914,213.291 139.414,212.957 139,212.5C 137.474,217.627 136.474,217.627 136,212.5C 135.63,214.664 134.796,216.664 133.5,218.5C 133.833,219.167 134.167,219.833 134.5,220.5C 134.154,221.696 133.654,221.696 133,220.5C 132.768,221.737 132.268,222.737 131.5,223.5C 131.5,199.833 131.5,176.167 131.5,152.5C 131.5,151.167 131.5,149.833 131.5,148.5C 132.854,141.121 134.854,133.788 137.5,126.5C 137.137,125.817 136.804,125.15 136.5,124.5C 137.376,124.631 138.043,124.298 138.5,123.5C 140.45,117.088 143.784,111.588 148.5,107C 149.148,105.56 149.481,104.06 149.5,102.5C 149.833,102.5 150.167,102.5 150.5,102.5C 150.833,102.5 151.167,102.5 151.5,102.5C 151.235,106.13 149.902,109.297 147.5,112C 148.112,113.303 148.446,114.47 148.5,115.5C 155.027,109.395 161.36,103.061 167.5,96.5C 176.358,91.6578 185.691,87.9911 195.5,85.5C 197.117,83.6093 199.117,82.276 201.5,81.5C 208.408,82.0517 215.241,83.0517 222,84.5C 222.772,84.3552 223.439,84.0219 224,83.5C 230.146,85.4911 229.979,86.8244 223.5,87.5C 223.667,87.8333 223.833,88.1667 224,88.5C 226.667,87.8333 229.333,87.1667 232,86.5C 232.317,88.3008 232.984,88.6341 234,87.5C 235.995,89.747 238.495,90.747 241.5,90.5 Z"/></g>
<g><path style="opacity:1" fill="#757d8f" d="M 155.5,96.5 C 153.833,98.5 152.167,100.5 150.5,102.5C 150.167,102.5 149.833,102.5 149.5,102.5C 150.5,99.5 152.5,97.5 155.5,96.5 Z"/></g>
<g><path style="opacity:1" fill="#a2a7b3" d="M 264.5,104.5 C 265.873,104.343 267.207,104.51 268.5,105C 270.635,105.876 271.969,107.376 272.5,109.5C 269.563,108.197 266.897,106.53 264.5,104.5 Z"/></g>
<g><path style="opacity:1" fill="#434b5f" d="M 149.5,102.5 C 149.481,104.06 149.148,105.56 148.5,107C 143.784,111.588 140.45,117.088 138.5,123.5C 138.043,124.298 137.376,124.631 136.5,124.5C 138.432,118.631 140.932,112.964 144,107.5C 145.75,105.576 147.583,103.909 149.5,102.5 Z"/></g>
<g><path style="opacity:1" fill="#c3c6ce" d="M 252.5,128.5 C 251.127,128.657 249.793,128.49 248.5,128C 236.386,120.135 223.052,115.968 208.5,115.5C 203.856,117.165 199.189,118.832 194.5,120.5C 193.687,119.347 192.687,119.347 191.5,120.5C 190.702,120.043 190.369,119.376 190.5,118.5C 191.058,117.21 192.058,116.377 193.5,116C 202.903,112.697 212.569,111.697 222.5,113C 233.524,116.344 243.524,121.511 252.5,128.5 Z"/></g>
<g><path style="opacity:1" fill="#f8f8f8" d="M 252.5,128.5 C 254.332,129.248 255.999,130.248 257.5,131.5C 258.051,134.267 259.384,136.6 261.5,138.5C 266.469,141.478 271.135,144.811 275.5,148.5C 296.842,161.513 318.175,174.513 339.5,187.5C 342.48,190.144 345.48,192.811 348.5,195.5C 361.183,202.506 373.183,210.506 384.5,219.5C 389.56,225.86 393.227,232.86 395.5,240.5C 397.692,254.015 395.359,266.682 388.5,278.5C 385.065,282.438 381.398,286.271 377.5,290C 364.681,297.996 352.015,306.163 339.5,314.5C 337.251,315.08 335.585,316.413 334.5,318.5C 330.54,320.477 326.873,322.81 323.5,325.5C 315.558,330.114 307.892,335.114 300.5,340.5C 283.849,349.825 267.849,360.159 252.5,371.5C 245.089,376.539 237.089,380.539 228.5,383.5C 216.609,387.7 204.942,387.033 193.5,381.5C 190.328,379.748 187.328,377.748 184.5,375.5C 179.773,369.377 176.107,362.71 173.5,355.5C 172.521,311.857 172.188,268.19 172.5,224.5C 172.333,200.498 172.5,176.498 173,152.5C 173.808,147.577 175.308,142.911 177.5,138.5C 181.787,131.213 187.454,125.213 194.5,120.5C 199.189,118.832 203.856,117.165 208.5,115.5C 223.052,115.968 236.386,120.135 248.5,128C 249.793,128.49 251.127,128.657 252.5,128.5 Z"/></g>
<g><path style="opacity:1" fill="#60697c" d="M 190.5,118.5 C 190.369,119.376 190.702,120.043 191.5,120.5C 192.687,119.347 193.687,119.347 194.5,120.5C 187.454,125.213 181.787,131.213 177.5,138.5C 178.91,135.05 179.576,131.384 179.5,127.5C 182.27,123.395 185.937,120.395 190.5,118.5 Z"/></g>
<g><path style="opacity:1" fill="#525b71" d="M 136.5,124.5 C 136.804,125.15 137.137,125.817 137.5,126.5C 134.854,133.788 132.854,141.121 131.5,148.5C 131.463,140.026 133.13,132.026 136.5,124.5 Z"/></g>
<g><path style="opacity:1" fill="#444c64" d="M 179.5,127.5 C 179.576,131.384 178.91,135.05 177.5,138.5C 175.308,142.911 173.808,147.577 173,152.5C 172.5,176.498 172.333,200.498 172.5,224.5C 171.662,224.158 171.328,223.492 171.5,222.5C 171.667,210.495 171.5,198.495 171,186.5C 170.658,184.381 169.825,184.047 168.5,185.5C 167.884,177.061 168.551,168.894 170.5,161C 168.389,148.409 171.389,137.242 179.5,127.5 Z"/></g>
<g><path style="opacity:1" fill="#c6cad1" d="M 257.5,131.5 C 284.041,148.598 310.375,165.931 336.5,183.5C 337.211,185.03 338.211,186.363 339.5,187.5C 318.175,174.513 296.842,161.513 275.5,148.5C 271.135,144.811 266.469,141.478 261.5,138.5C 259.384,136.6 258.051,134.267 257.5,131.5 Z"/></g>
<g><path style="opacity:1" fill="#001332" d="M 341.5,249.5 C 339.852,248.19 338.186,246.857 336.5,245.5C 336.072,248.522 334.739,251.022 332.5,253C 324.198,254.29 315.865,254.623 307.5,254C 300.342,251.618 293.009,249.618 285.5,248C 282.967,246.967 281.301,245.133 280.5,242.5C 279.311,241.571 277.978,241.238 276.5,241.5C 276.068,240.29 275.401,239.29 274.5,238.5C 274.5,235.833 274.5,233.167 274.5,230.5C 272.833,230.5 271.167,230.5 269.5,230.5C 269.5,231.5 269.5,232.5 269.5,233.5C 266.056,232.955 264.889,230.955 266,227.5C 266.423,228.956 267.256,229.456 268.5,229C 266.275,224.276 263.775,220.442 261,217.5C 250.916,205.512 246.916,207.179 249,222.5C 248.581,226.852 247.914,227.185 247,223.5C 246.252,227.509 244.752,231.176 242.5,234.5C 243.246,235.736 243.579,237.07 243.5,238.5C 243.5,238.833 243.5,239.167 243.5,239.5C 240.327,238.632 237.327,238.632 234.5,239.5C 233.448,239.351 232.448,239.517 231.5,240C 230.696,241.771 229.529,243.271 228,244.5C 227.586,244.043 227.086,243.709 226.5,243.5C 226.891,244.718 226.224,245.552 224.5,246C 221.173,248.133 218.006,247.966 215,245.5C 214.667,246.167 214.333,246.833 214,247.5C 212.954,250.35 212.287,253.017 212,255.5C 211.831,268.673 211.331,281.673 210.5,294.5C 210.333,258.498 210.5,222.498 211,186.5C 213.284,176.917 219.45,171.917 229.5,171.5C 233.419,171.896 237.086,173.063 240.5,175C 270.935,194.726 301.268,214.726 331.5,235C 336.69,238.545 340.023,243.379 341.5,249.5 Z"/></g>
<g><path style="opacity:1" fill="#303a51" d="M 171.5,222.5 C 170.894,219.833 170.061,217.166 169,214.5C 168.833,222.333 168.667,230.167 168.5,238C 169.011,251.85 169.678,265.683 170.5,279.5C 169.5,279.5 168.5,279.5 167.5,279.5C 167.5,270.5 167.5,261.5 167.5,252.5C 167.5,238.5 167.5,224.5 167.5,210.5C 168.371,202.2 168.705,193.867 168.5,185.5C 169.825,184.047 170.658,184.381 171,186.5C 171.5,198.495 171.667,210.495 171.5,222.5 Z"/></g>
<g><path style="opacity:1" fill="#404961" d="M 336.5,183.5 C 350.167,191.351 363.501,199.851 376.5,209C 380.175,211.828 382.842,215.328 384.5,219.5C 373.183,210.506 361.183,202.506 348.5,195.5C 345.48,192.811 342.48,190.144 339.5,187.5C 338.211,186.363 337.211,185.03 336.5,183.5 Z"/></g>
<g><path style="opacity:1" fill="#101125" d="M 274.5,238.5 C 274.167,238.5 273.833,238.5 273.5,238.5C 273.799,236.396 273.466,234.396 272.5,232.5C 269.828,234.425 268.828,237.092 269.5,240.5C 268.954,242.303 268.12,243.97 267,245.5C 266.579,241.128 265.912,236.795 265,232.5C 264.626,230.509 263.793,228.842 262.5,227.5C 259.967,221.115 255.967,215.782 250.5,211.5C 250.437,215.713 250.271,220.046 250,224.5C 248.094,229.431 245.927,234.098 243.5,238.5C 243.579,237.07 243.246,235.736 242.5,234.5C 244.752,231.176 246.252,227.509 247,223.5C 247.914,227.185 248.581,226.852 249,222.5C 246.916,207.179 250.916,205.512 261,217.5C 263.775,220.442 266.275,224.276 268.5,229C 267.256,229.456 266.423,228.956 266,227.5C 264.889,230.955 266.056,232.955 269.5,233.5C 269.5,232.5 269.5,231.5 269.5,230.5C 271.167,230.5 272.833,230.5 274.5,230.5C 274.5,233.167 274.5,235.833 274.5,238.5 Z"/></g>
<g><path style="opacity:1" fill="#000c2a" d="M 167.5,210.5 C 167.5,224.5 167.5,238.5 167.5,252.5C 162.901,251.791 158.234,251.625 153.5,252C 150.879,248.675 147.546,247.342 143.5,248C 145.332,249.489 146.165,251.322 146,253.5C 142.731,250.097 138.898,248.931 134.5,250C 137.167,248.333 137.167,246.667 134.5,245C 135.849,243.365 135.682,241.865 134,240.5C 133.667,241.5 133.333,242.5 133,243.5C 132.79,241.942 132.29,240.609 131.5,239.5C 131.5,234.167 131.5,228.833 131.5,223.5C 132.268,222.737 132.768,221.737 133,220.5C 133.654,221.696 134.154,221.696 134.5,220.5C 134.167,219.833 133.833,219.167 133.5,218.5C 134.796,216.664 135.63,214.664 136,212.5C 136.474,217.627 137.474,217.627 139,212.5C 139.414,212.957 139.914,213.291 140.5,213.5C 142.955,212.685 145.289,211.685 147.5,210.5C 149.974,211.269 152.474,211.936 155,212.5C 156.447,212.055 157.78,211.388 159,210.5C 161.826,210.82 164.66,210.82 167.5,210.5 Z"/></g>
<g><path style="opacity:1" fill="#f25001" d="M 262.5,227.5 C 264.059,234.306 264.893,241.306 265,248.5C 269.226,249.708 271.893,248.041 273,243.5C 274.524,249.316 276.358,254.982 278.5,260.5C 279.034,263.107 278.367,265.607 276.5,268C 277.634,269.016 277.301,269.683 275.5,270C 277.991,270.626 277.991,271.459 275.5,272.5C 274.797,275.34 273.797,278.007 272.5,280.5C 267.563,284.464 261.896,286.464 255.5,286.5C 267.251,280.179 271.084,270.512 267,257.5C 265.752,260.579 263.919,263.246 261.5,265.5C 260.882,258.685 258.882,252.352 255.5,246.5C 251.909,252.681 248.576,259.014 245.5,265.5C 241.592,261.238 239.925,262.238 240.5,268.5C 240.998,276.829 244.998,282.829 252.5,286.5C 237.114,284.282 228.781,275.449 227.5,260C 227.81,255.636 228.81,251.469 230.5,247.5C 232.776,247.244 233.943,245.91 234,243.5C 234.2,245.32 235.034,246.653 236.5,247.5C 236.222,249.346 236.889,250.68 238.5,251.5C 239.642,247.225 241.308,243.225 243.5,239.5C 243.5,239.167 243.5,238.833 243.5,238.5C 245.927,234.098 248.094,229.431 250,224.5C 250.271,220.046 250.437,215.713 250.5,211.5C 255.967,215.782 259.967,221.115 262.5,227.5 Z"/></g>
<g><path style="opacity:1" fill="#913a13" d="M 273.5,238.5 C 272.71,237.391 272.21,236.058 272,234.5C 270.981,236.502 270.148,238.502 269.5,240.5C 268.828,237.092 269.828,234.425 272.5,232.5C 273.466,234.396 273.799,236.396 273.5,238.5 Z"/></g>
<g><path style="opacity:1" fill="#20131f" d="M 234.5,239.5 C 237.327,238.632 240.327,238.632 243.5,239.5C 241.308,243.225 239.642,247.225 238.5,251.5C 236.889,250.68 236.222,249.346 236.5,247.5C 237.036,244.302 236.369,241.635 234.5,239.5 Z"/></g>
<g><path style="opacity:1" fill="#dc4e06" d="M 262.5,227.5 C 263.793,228.842 264.626,230.509 265,232.5C 265.912,236.795 266.579,241.128 267,245.5C 268.12,243.97 268.954,242.303 269.5,240.5C 270.148,238.502 270.981,236.502 272,234.5C 272.21,236.058 272.71,237.391 273.5,238.5C 273.833,238.5 274.167,238.5 274.5,238.5C 275.401,239.29 276.068,240.29 276.5,241.5C 281.083,252.258 281.583,263.258 278,274.5C 276.383,276.763 274.55,278.763 272.5,280.5C 273.797,278.007 274.797,275.34 275.5,272.5C 277.991,271.459 277.991,270.626 275.5,270C 277.301,269.683 277.634,269.016 276.5,268C 278.367,265.607 279.034,263.107 278.5,260.5C 276.358,254.982 274.524,249.316 273,243.5C 271.893,248.041 269.226,249.708 265,248.5C 264.893,241.306 264.059,234.306 262.5,227.5 Z"/></g>
<g><path style="opacity:1" fill="#aa4011" d="M 234.5,239.5 C 236.369,241.635 237.036,244.302 236.5,247.5C 235.034,246.653 234.2,245.32 234,243.5C 233.943,245.91 232.776,247.244 230.5,247.5C 232.018,244.961 233.351,242.294 234.5,239.5 Z"/></g>
<g><path style="opacity:1" fill="#303b54" d="M 395.5,240.5 C 396.989,244.236 397.656,248.236 397.5,252.5C 396.641,256.543 396.475,260.543 397,264.5C 394.306,268.554 392.139,272.888 390.5,277.5C 390.043,278.298 389.376,278.631 388.5,278.5C 395.359,266.682 397.692,254.015 395.5,240.5 Z"/></g>
<g><path style="opacity:1" fill="#010c27" d="M 131.5,239.5 C 132.29,240.609 132.79,241.942 133,243.5C 133.333,242.5 133.667,241.5 134,240.5C 135.682,241.865 135.849,243.365 134.5,245C 137.167,246.667 137.167,248.333 134.5,250C 138.898,248.931 142.731,250.097 146,253.5C 146.165,251.322 145.332,249.489 143.5,248C 147.546,247.342 150.879,248.675 153.5,252C 158.234,251.625 162.901,251.791 167.5,252.5C 167.5,261.5 167.5,270.5 167.5,279.5C 168.485,296.756 168.819,314.09 168.5,331.5C 167.679,334.641 167.179,337.975 167,341.5C 166.667,340.167 166.333,338.833 166,337.5C 164.348,338.068 162.682,339.401 161,341.5C 158.931,340.736 156.764,340.236 154.5,340C 152.255,337.913 149.588,336.579 146.5,336C 146.833,335.667 147.167,335.333 147.5,335C 145.326,332.648 142.659,331.481 139.5,331.5C 139.281,330.325 139.614,329.325 140.5,328.5C 145.516,330.602 150.516,332.602 155.5,334.5C 155.543,331.912 156.543,329.746 158.5,328C 157.816,326.307 156.816,324.807 155.5,323.5C 157.006,322.253 158.506,322.253 160,323.5C 160.692,322.975 161.192,322.308 161.5,321.5C 158.94,319.326 158.94,317.159 161.5,315C 159.95,310.469 160.616,306.303 163.5,302.5C 163.16,300.488 162.827,298.488 162.5,296.5C 160.856,296.286 159.356,296.62 158,297.5C 155.021,296.251 154.854,294.584 157.5,292.5C 156.366,290.531 155.033,288.698 153.5,287C 153.735,286.127 154.069,285.293 154.5,284.5C 156.296,283.859 157.796,282.859 159,281.5C 159.71,282.973 160.876,283.64 162.5,283.5C 163.482,288.815 164.482,288.815 165.5,283.5C 164.385,280.884 163.051,278.384 161.5,276C 162.148,274.56 162.481,273.06 162.5,271.5C 157.662,270.668 154.829,272.668 154,277.5C 152.082,278.542 150.249,279.708 148.5,281C 153.735,285.337 152.735,287.503 145.5,287.5C 145.477,285.073 144.977,282.74 144,280.5C 143.51,281.793 143.343,283.127 143.5,284.5C 141.011,284.298 138.677,284.798 136.5,286C 136.19,287.874 136.69,289.707 138,291.5C 139.079,289.606 140.413,289.273 142,290.5C 142.762,294.517 143.262,298.517 143.5,302.5C 145.5,302.167 147.5,301.833 149.5,301.5C 149.967,304.38 149.134,306.713 147,308.5C 144.634,307.062 144.134,307.562 145.5,310C 143.464,311.819 143.297,313.653 145,315.5C 145.414,315.043 145.914,314.709 146.5,314.5C 147.768,316.304 148.435,318.304 148.5,320.5C 146.396,320.201 144.396,320.534 142.5,321.5C 141.959,323.535 141.292,325.535 140.5,327.5C 139.724,324.014 139.058,320.514 138.5,317C 139.999,314.602 140.666,311.935 140.5,309C 139.909,304.181 139.576,299.348 139.5,294.5C 137.833,294.5 136.167,294.5 134.5,294.5C 135.092,297.631 134.092,299.964 131.5,301.5C 131.5,280.833 131.5,260.167 131.5,239.5 Z"/></g>
<g><path style="opacity:1" fill="#303a51" d="M 131.5,152.5 C 131.5,176.167 131.5,199.833 131.5,223.5C 131.5,228.833 131.5,234.167 131.5,239.5C 131.5,260.167 131.5,280.833 131.5,301.5C 131.239,311.859 131.572,322.192 132.5,332.5C 131.962,338.663 131.296,344.663 130.5,350.5C 130.168,284.331 130.501,218.331 131.5,152.5 Z"/></g>
<g><path style="opacity:1" fill="#121e36" d="M 171.5,222.5 C 171.328,223.492 171.662,224.158 172.5,224.5C 172.188,268.19 172.521,311.857 173.5,355.5C 173.66,357.199 173.494,358.866 173,360.5C 171.458,355.955 170.624,351.289 170.5,346.5C 170.5,324.167 170.5,301.833 170.5,279.5C 169.678,265.683 169.011,251.85 168.5,238C 168.667,230.167 168.833,222.333 169,214.5C 170.061,217.166 170.894,219.833 171.5,222.5 Z"/></g>
<g><path style="opacity:1" fill="#030a27" d="M 234.5,239.5 C 233.351,242.294 232.018,244.961 230.5,247.5C 228.81,251.469 227.81,255.636 227.5,260C 228.781,275.449 237.114,284.282 252.5,286.5C 253.5,286.5 254.5,286.5 255.5,286.5C 261.896,286.464 267.563,284.464 272.5,280.5C 274.55,278.763 276.383,276.763 278,274.5C 281.583,263.258 281.083,252.258 276.5,241.5C 277.978,241.238 279.311,241.571 280.5,242.5C 281.301,245.133 282.967,246.967 285.5,248C 293.009,249.618 300.342,251.618 307.5,254C 315.865,254.623 324.198,254.29 332.5,253C 334.739,251.022 336.072,248.522 336.5,245.5C 338.186,246.857 339.852,248.19 341.5,249.5C 341.792,259.854 337.459,267.521 328.5,272.5C 326.251,273.08 324.585,274.413 323.5,276.5C 296.152,293.171 269.152,310.338 242.5,328C 235.343,332.591 227.676,333.591 219.5,331C 215.266,327.361 212.432,322.861 211,317.5C 210.5,309.841 210.334,302.174 210.5,294.5C 211.331,281.673 211.831,268.673 212,255.5C 212.287,253.017 212.954,250.35 214,247.5C 214.333,246.833 214.667,246.167 215,245.5C 218.006,247.966 221.173,248.133 224.5,246C 226.224,245.552 226.891,244.718 226.5,243.5C 227.086,243.709 227.586,244.043 228,244.5C 229.529,243.271 230.696,241.771 231.5,240C 232.448,239.517 233.448,239.351 234.5,239.5 Z"/></g>
<g><path style="opacity:1" fill="#f9a000" d="M 255.5,286.5 C 254.5,286.5 253.5,286.5 252.5,286.5C 244.998,282.829 240.998,276.829 240.5,268.5C 239.925,262.238 241.592,261.238 245.5,265.5C 248.576,259.014 251.909,252.681 255.5,246.5C 258.882,252.352 260.882,258.685 261.5,265.5C 263.919,263.246 265.752,260.579 267,257.5C 271.084,270.512 267.251,280.179 255.5,286.5 Z"/></g>
<g><path style="opacity:1" fill="#808696" d="M 328.5,272.5 C 327.415,274.587 325.749,275.92 323.5,276.5C 324.585,274.413 326.251,273.08 328.5,272.5 Z"/></g>
<g><path style="opacity:1" fill="#233a63" d="M 167.5,279.5 C 168.5,279.5 169.5,279.5 170.5,279.5C 170.5,301.833 170.5,324.167 170.5,346.5C 169.833,346.167 169.167,345.833 168.5,345.5C 168.5,340.833 168.5,336.167 168.5,331.5C 168.819,314.09 168.485,296.756 167.5,279.5 Z"/></g>
<g><path style="opacity:1" fill="#02102c" d="M 417.5,208.5 C 428.56,224.75 432.727,242.75 430,262.5C 428.963,273.778 425.463,284.111 419.5,293.5C 418.448,293.351 417.448,293.517 416.5,294C 414.64,297.867 411.64,300.2 407.5,301C 404.502,303.315 402.335,306.148 401,309.5C 395.953,315.409 389.786,319.409 382.5,321.5C 382.617,323.484 381.95,325.15 380.5,326.5C 373.362,330.916 366.362,335.416 359.5,340C 357.536,341.451 356.203,343.284 355.5,345.5C 345.996,352.159 336.329,358.659 326.5,365C 311.505,373.831 296.505,382.665 281.5,391.5C 280.833,391.5 280.167,391.5 279.5,391.5C 278.821,389.186 277.488,388.853 275.5,390.5C 272.745,389.49 270.745,387.657 269.5,385C 274.151,384.287 278.817,382.787 283.5,380.5C 285.036,381.249 286.369,382.249 287.5,383.5C 288.806,380.934 290.639,379.934 293,380.5C 294.885,378.98 297.051,377.98 299.5,377.5C 301.879,370.96 306.546,367.127 313.5,366C 314.743,364.846 315.743,363.512 316.5,362C 320.602,360.078 324.935,358.745 329.5,358C 330.667,356.167 332.167,354.667 334,353.5C 334.333,354.167 334.667,354.833 335,355.5C 341.916,351.591 348.582,347.258 355,342.5C 355.309,340.487 354.642,340.154 353,341.5C 352.085,340.672 351.419,339.672 351,338.5C 348.478,341.372 346.645,341.038 345.5,337.5C 340.965,336.347 338.965,333.68 339.5,329.5C 336.014,330.062 332.348,330.228 328.5,330C 329.784,328.703 329.617,327.536 328,326.5C 325.522,328.82 322.689,330.486 319.5,331.5C 320.315,330.163 321.482,329.163 323,328.5C 323.483,327.552 323.649,326.552 323.5,325.5C 327.984,324.331 331.651,321.997 334.5,318.5C 336.749,317.92 338.415,316.587 339.5,314.5C 352.015,306.163 364.681,297.996 377.5,290C 381.398,286.271 385.065,282.438 388.5,278.5C 389.376,278.631 390.043,278.298 390.5,277.5C 392.139,272.888 394.306,268.554 397,264.5C 396.475,260.543 396.641,256.543 397.5,252.5C 398.75,252.423 399.583,251.756 400,250.5C 400.162,244.362 398.662,238.362 395.5,232.5C 398.82,232.123 402.154,230.789 405.5,228.5C 401.003,222.818 398.17,216.485 397,209.5C 403.2,209.267 409.533,208.601 416,207.5C 416.383,208.056 416.883,208.389 417.5,208.5 Z"/></g>
<g><path style="opacity:1" fill="#000826" d="M 168.5,331.5 C 168.5,336.167 168.5,340.833 168.5,345.5C 168.569,356.539 171.736,366.539 178,375.5C 179.777,377.79 181.944,379.457 184.5,380.5C 188.729,384.45 193.729,387.117 199.5,388.5C 204.343,390.039 209.343,390.706 214.5,390.5C 221.089,390.103 227.422,388.603 233.5,386C 240.262,382.63 246.596,378.797 252.5,374.5C 267.584,365.303 282.251,355.636 296.5,345.5C 304.333,341.084 312,336.418 319.5,331.5C 322.689,330.486 325.522,328.82 328,326.5C 329.617,327.536 329.784,328.703 328.5,330C 332.348,330.228 336.014,330.062 339.5,329.5C 338.965,333.68 340.965,336.347 345.5,337.5C 346.645,341.038 348.478,341.372 351,338.5C 351.419,339.672 352.085,340.672 353,341.5C 354.642,340.154 355.309,340.487 355,342.5C 348.582,347.258 341.916,351.591 335,355.5C 334.667,354.833 334.333,354.167 334,353.5C 332.167,354.667 330.667,356.167 329.5,358C 324.935,358.745 320.602,360.078 316.5,362C 315.743,363.512 314.743,364.846 313.5,366C 306.546,367.127 301.879,370.96 299.5,377.5C 297.051,377.98 294.885,378.98 293,380.5C 290.639,379.934 288.806,380.934 287.5,383.5C 286.369,382.249 285.036,381.249 283.5,380.5C 278.817,382.787 274.151,384.287 269.5,385C 270.745,387.657 272.745,389.49 275.5,390.5C 277.488,388.853 278.821,389.186 279.5,391.5C 278.883,391.389 278.383,391.056 278,390.5C 274.121,392.189 270.288,394.022 266.5,396C 263.075,399.881 259.075,403.048 254.5,405.5C 253.295,406.577 252.628,407.91 252.5,409.5C 251.71,410.401 250.71,411.068 249.5,411.5C 239.398,415.544 229.065,419.044 218.5,422C 197.769,426.212 178.436,422.879 160.5,412C 159.207,411.51 157.873,411.343 156.5,411.5C 155.407,408.739 153.407,407.073 150.5,406.5C 136.128,390.727 129.462,372.061 130.5,350.5C 131.296,344.663 131.962,338.663 132.5,332.5C 131.572,322.192 131.239,311.859 131.5,301.5C 134.092,299.964 135.092,297.631 134.5,294.5C 136.167,294.5 137.833,294.5 139.5,294.5C 139.576,299.348 139.909,304.181 140.5,309C 140.666,311.935 139.999,314.602 138.5,317C 139.058,320.514 139.724,324.014 140.5,327.5C 141.292,325.535 141.959,323.535 142.5,321.5C 144.396,320.534 146.396,320.201 148.5,320.5C 148.435,318.304 147.768,316.304 146.5,314.5C 145.914,314.709 145.414,315.043 145,315.5C 143.297,313.653 143.464,311.819 145.5,310C 144.134,307.562 144.634,307.062 147,308.5C 149.134,306.713 149.967,304.38 149.5,301.5C 147.5,301.833 145.5,302.167 143.5,302.5C 143.262,298.517 142.762,294.517 142,290.5C 140.413,289.273 139.079,289.606 138,291.5C 136.69,289.707 136.19,287.874 136.5,286C 138.677,284.798 141.011,284.298 143.5,284.5C 143.343,283.127 143.51,281.793 144,280.5C 144.977,282.74 145.477,285.073 145.5,287.5C 152.735,287.503 153.735,285.337 148.5,281C 150.249,279.708 152.082,278.542 154,277.5C 154.829,272.668 157.662,270.668 162.5,271.5C 162.481,273.06 162.148,274.56 161.5,276C 163.051,278.384 164.385,280.884 165.5,283.5C 164.482,288.815 163.482,288.815 162.5,283.5C 160.876,283.64 159.71,282.973 159,281.5C 157.796,282.859 156.296,283.859 154.5,284.5C 154.069,285.293 153.735,286.127 153.5,287C 155.033,288.698 156.366,290.531 157.5,292.5C 154.854,294.584 155.021,296.251 158,297.5C 159.356,296.62 160.856,296.286 162.5,296.5C 162.827,298.488 163.16,300.488 163.5,302.5C 160.616,306.303 159.95,310.469 161.5,315C 158.94,317.159 158.94,319.326 161.5,321.5C 161.192,322.308 160.692,322.975 160,323.5C 158.506,322.253 157.006,322.253 155.5,323.5C 156.816,324.807 157.816,326.307 158.5,328C 156.543,329.746 155.543,331.912 155.5,334.5C 150.516,332.602 145.516,330.602 140.5,328.5C 139.614,329.325 139.281,330.325 139.5,331.5C 142.659,331.481 145.326,332.648 147.5,335C 147.167,335.333 146.833,335.667 146.5,336C 149.588,336.579 152.255,337.913 154.5,340C 156.764,340.236 158.931,340.736 161,341.5C 162.682,339.401 164.348,338.068 166,337.5C 166.333,338.833 166.667,340.167 167,341.5C 167.179,337.975 167.679,334.641 168.5,331.5 Z"/></g>
<g><path style="opacity:1" fill="#6a7384" d="M 339.5,314.5 C 338.415,316.587 336.749,317.92 334.5,318.5C 335.585,316.413 337.251,315.08 339.5,314.5 Z"/></g>
<g><path style="opacity:1" fill="#485167" d="M 334.5,318.5 C 331.651,321.997 327.984,324.331 323.5,325.5C 326.873,322.81 330.54,320.477 334.5,318.5 Z"/></g>
<g><path style="opacity:1" fill="#36435f" d="M 323.5,325.5 C 323.649,326.552 323.483,327.552 323,328.5C 321.482,329.163 320.315,330.163 319.5,331.5C 312,336.418 304.333,341.084 296.5,345.5C 297.833,343.833 299.167,342.167 300.5,340.5C 307.892,335.114 315.558,330.114 323.5,325.5 Z"/></g>
<g><path style="opacity:1" fill="#323c54" d="M 419.5,293.5 C 415.842,300.338 411.176,306.505 405.5,312C 394.78,320.387 383.78,328.387 372.5,336C 366.779,339.191 361.112,342.358 355.5,345.5C 356.203,343.284 357.536,341.451 359.5,340C 366.362,335.416 373.362,330.916 380.5,326.5C 381.95,325.15 382.617,323.484 382.5,321.5C 389.786,319.409 395.953,315.409 401,309.5C 402.335,306.148 404.502,303.315 407.5,301C 411.64,300.2 414.64,297.867 416.5,294C 417.448,293.517 418.448,293.351 419.5,293.5 Z"/></g>
<g><path style="opacity:1" fill="#545d74" d="M 300.5,340.5 C 299.167,342.167 297.833,343.833 296.5,345.5C 282.251,355.636 267.584,365.303 252.5,374.5C 251.167,373.5 251.167,372.5 252.5,371.5C 267.849,360.159 283.849,349.825 300.5,340.5 Z"/></g>
<g><path style="opacity:1" fill="#25324e" d="M 168.5,345.5 C 169.167,345.833 169.833,346.167 170.5,346.5C 170.624,351.289 171.458,355.955 173,360.5C 173.494,358.866 173.66,357.199 173.5,355.5C 176.107,362.71 179.773,369.377 184.5,375.5C 185.562,377.234 185.562,378.901 184.5,380.5C 181.944,379.457 179.777,377.79 178,375.5C 171.736,366.539 168.569,356.539 168.5,345.5 Z"/></g>
<g><path style="opacity:1" fill="#848a9a" d="M 252.5,371.5 C 251.167,372.5 251.167,373.5 252.5,374.5C 246.596,378.797 240.262,382.63 233.5,386C 227.422,388.603 221.089,390.103 214.5,390.5C 218.668,389.206 223.001,388.039 227.5,387C 228.337,385.989 228.67,384.822 228.5,383.5C 237.089,380.539 245.089,376.539 252.5,371.5 Z"/></g>
<g><path style="opacity:1" fill="#949aa9" d="M 184.5,375.5 C 187.328,377.748 190.328,379.748 193.5,381.5C 195.909,383.398 197.909,385.732 199.5,388.5C 193.729,387.117 188.729,384.45 184.5,380.5C 185.562,378.901 185.562,377.234 184.5,375.5 Z"/></g>
<g><path style="opacity:1" fill="#c5cad1" d="M 193.5,381.5 C 204.942,387.033 216.609,387.7 228.5,383.5C 228.67,384.822 228.337,385.989 227.5,387C 223.001,388.039 218.668,389.206 214.5,390.5C 209.343,390.706 204.343,390.039 199.5,388.5C 197.909,385.732 195.909,383.398 193.5,381.5 Z"/></g>
<g><path style="opacity:1" fill="#1f2b48" d="M 279.5,391.5 C 280.167,391.5 280.833,391.5 281.5,391.5C 272.193,398.22 262.526,404.22 252.5,409.5C 252.628,407.91 253.295,406.577 254.5,405.5C 259.075,403.048 263.075,399.881 266.5,396C 270.288,394.022 274.121,392.189 278,390.5C 278.383,391.056 278.883,391.389 279.5,391.5 Z"/></g>
<g><path style="opacity:1" fill="#4b5a76" d="M 150.5,406.5 C 153.407,407.073 155.407,408.739 156.5,411.5C 153.911,410.581 151.911,408.914 150.5,406.5 Z"/></g>
<g><path style="opacity:1" fill="#4c5a77" d="M 156.5,411.5 C 157.873,411.343 159.207,411.51 160.5,412C 178.436,422.879 197.769,426.212 218.5,422C 229.065,419.044 239.398,415.544 249.5,411.5C 221.179,430.694 191.846,432.194 161.5,416C 159.382,414.951 157.716,413.451 156.5,411.5 Z"/></g>
</svg>
